<?xml version="1.0" standalone="no"?>
<!DOCTYPE svg PUBLIC "-//W3C//DTD SVG 20010904//EN"
 "http://www.w3.org/TR/2001/REC-SVG-20010904/DTD/svg10.dtd">
<svg version="1.0" xmlns="http://www.w3.org/2000/svg"
 width="700.000000pt" height="700.000000pt" viewBox="0 0 700.000000 700.000000"
 preserveAspectRatio="xMidYMid meet">
<metadata>
Created by potrace 1.14, written by Peter Selinger 2001-2017
</metadata>
<g transform="translate(0.000000,700.000000) scale(0.100000,-0.100000)"
fill="#000000" stroke="none">
<path d="M0 3500 l0 -3500 3500 0 3500 0 0 3500 0 3500 -3500 0 -3500 0 0
-3500z m6010 0 l0 -2510 -2510 0 -2510 0 0 2510 0 2510 2510 0 2510 0 0 -2510z"/>
<path d="M1759 5233 c-1 -24 -1 -3523 0 -3545 1 -17 65 -18 1201 -18 l1200 0
-2 328 -3 327 -780 2 c-429 0 -785 2 -791 2 -8 1 -11 391 -10 1394 l1 1392 23
38 c12 21 22 51 22 68 l0 29 -430 0 c-403 0 -430 -1 -431 -17z"/>
</g>
</svg>
